<?xml version="1.0" encoding="utf-8"?>
<!-- Generator: Adobe Illustrator 27.3.1, SVG Export Plug-In . SVG Version: 6.00 Build 0)  -->
<svg version="1.1" id="Layer_1" xmlns="http://www.w3.org/2000/svg" xmlns:xlink="http://www.w3.org/1999/xlink" x="0px" y="0px"
	 viewBox="0 0 1080 1073.2" style="enable-background:new 0 0 1080 1073.2;" xml:space="preserve">
<style type="text/css">
	.st0{fill:#7352C7;}
</style>
<g>
	<path class="st0" d="M532.2,537.6c-0.3-1.1-1.1-1.7-2.2-1.8c-1.2-0.1-2.2,0.2-2.7,1.4c-0.9,2-0.9,4-0.1,6c0.5,1.2,1.4,1.8,2.7,1.7
		c1.2-0.1,2-0.7,2.4-1.9c0.3-0.8,0.3-1.6,0.3-2.5C532.5,539.5,532.5,538.5,532.2,537.6z"/>
	<path class="st0" d="M550.2,535.8c-1.2,0-2.1,0.8-2.5,2.1c-0.2,0.8-0.3,1.6-0.3,2.4c0,0.6,0.1,1.1,0.1,1.7c0,0.3,0.1,0.7,0.2,1
		c0.4,1.3,1.4,1.9,2.7,1.9c1.2,0,2.1-0.7,2.5-1.9c0.5-1.7,0.5-3.4,0-5.1C552.6,536.4,551.7,535.8,550.2,535.8z"/>
	<path class="st0" d="M574.8,534.9c-0.4-1.6-1.4-3.1-3-3.7c-1.4-0.6-2.1-1.5-2.6-2.9c-1.4-4.2-4.2-7.3-8.1-9.4
		c-3.3-1.7-6.9-2.5-10.6-2.9c-1-0.1-2-0.1-2.8-0.8c-1.3-1.1-2.8-1.5-4.4-1.7c-0.4-0.1-0.8-0.1-1.2-0.2c-1-0.4-1.3-4.2-0.5-4.8
		c0.4-0.3,0.8-0.5,1.1-0.8c1.5-1.5,1.5-4.2-0.1-5.6c-1.6-1.5-4.3-1.3-5.6,0.3c-1.4,1.7-1.2,4.4,0.6,5.6c1.1,0.7,1.4,1.5,1.1,2.6
		c-0.1,0.4-0.1,0.8-0.2,1.2c0,1.1-0.6,1.6-1.7,1.7c-1.8,0.1-3.4,0.7-4.8,1.8c-0.4,0.3-0.9,0.4-1.4,0.5c-2.6,0.4-5.2,0.8-7.7,1.5
		c-6.3,1.8-10.7,5.6-12.6,11.9c-0.2,0.8-0.7,1.3-1.5,1.6c-1.8,0.7-3.1,2-3.6,3.9c-1,3.7-1.1,7.5,0,11.2c0.5,1.7,1.6,3,3.2,3.6
		c1.1,0.4,1.6,1.2,2,2.3c1.7,5,5,8.6,9.9,10.6c3.1,1.3,6.4,1.9,9.7,2.3c2.4,0.3,2.5,0.4,2.5,2.8c0,0.4,0,0.8,0,1.3c0,0.7,0,1.4,0,2
		c0,0,0,0.1,0,0.1c0,1.3,0.4,1.6,1.7,1.1c8.2-3,16.3-6.1,24.4-9.3c5.4-2.1,9.1-5.8,10.9-11.4c0.2-0.8,0.7-1.3,1.5-1.6
		c1.9-0.7,3.1-2.1,3.7-4.1C575.8,542.1,575.8,538.5,574.8,534.9z M563.2,547.3c-0.9,4.8-3.7,7.8-8.4,9.1c-3.6,1-7.2,1.3-10.8,1.4
		c-5.4,0.2-10.8,0.1-16.1-0.8c-0.9-0.2-1.8-0.4-2.7-0.6c-4.7-1.2-7.5-4.2-8.4-9c-0.8-4.4-0.9-8.8-0.2-13.1
		c1.1-6.6,4.2-9.4,10.9-10.6c4.2-0.7,8.4-1,10.7-0.9c6.9,0,11.8,0.2,16.6,1.5c4.7,1.2,7.4,4.2,8.3,8.9
		C564,537.9,564.1,542.6,563.2,547.3z"/>
</g>
</svg>
