<?xml version="1.0" encoding="utf-8"?>
<!-- Generator: Adobe Illustrator 27.3.1, SVG Export Plug-In . SVG Version: 6.00 Build 0)  -->
<svg version="1.1" id="Layer_1" xmlns="http://www.w3.org/2000/svg" xmlns:xlink="http://www.w3.org/1999/xlink" x="0px" y="0px"
	 viewBox="0 0 1080 1073.2" style="enable-background:new 0 0 1080 1073.2;" xml:space="preserve">
<style type="text/css">
	.st0{fill:#7352C7;}
	.st1{fill:#FFFFFF;}
</style>
<g>
	<g>
		<path class="st0" d="M540.4,693.4c-41.8,0-81.1-16.2-110.8-45.6c-29.7-29.5-46.2-68.7-46.3-110.4c-0.3-86.4,69.4-157,155.5-157.5
			c0.3,0,0.5,0,0.8,0c41.7,0,81,16.1,110.7,45.3c29.9,29.5,46.4,68.8,46.5,110.6c0.3,86.4-69.4,157-155.5,157.5
			C541,693.4,540.7,693.4,540.4,693.4z"/>
	</g>
	<g>
		<path class="st0" d="M560.8,287.3c0,6.9,0.4,13.8-0.1,20.7c-0.8,12.1-9.8,20.5-21,20.3c-10.8-0.2-19.8-8.2-20.3-19.5
			c-0.6-14.7-0.6-29.4,0-44c0.5-11.5,9.4-19.4,20.2-19.6c11.2-0.2,20.3,8.1,21.1,20.2C561.2,272.6,560.8,280,560.8,287.3z"/>
		<path class="st0" d="M289.9,557.4c-6.9,0-13.8,0.3-20.7-0.1c-12.2-0.7-20.6-9.4-20.7-20.6c-0.1-11.4,8.2-20.4,20.4-20.8
			c14.2-0.5,28.5-0.6,42.8,0c12,0.5,20.3,9.9,20.1,21.1c-0.3,10.7-8.3,19.3-19.8,20.2C304.7,557.8,297.3,557.4,289.9,557.4
			C289.9,557.4,289.9,557.4,289.9,557.4z"/>
		<path class="st0" d="M789.9,557.5c-6.9,0-13.8,0.3-20.7-0.1c-12.2-0.7-20.7-9.2-20.9-20.4c-0.2-11.3,8.1-20.5,20.2-21
			c14.2-0.6,28.5-0.6,42.8,0c12,0.5,20.4,9.7,20.3,21c-0.2,11.2-8.6,19.8-20.8,20.5C803.8,557.8,796.8,557.5,789.9,557.5z"/>
		<path class="st0" d="M560.7,786.9c0,7.3,0.5,14.7-0.1,22c-1,11.3-9.9,19.3-20.7,19.2c-10.8,0-20-8-20.5-19.3
			c-0.7-14.7-0.6-29.4,0-44c0.5-11.5,9.2-19.5,20-19.8c11.2-0.3,20.4,8,21.3,20C561.2,772.2,560.8,779.5,560.7,786.9z"/>
		<path class="st0" d="M375,729.8c-5.2,5.2-10.1,10.8-15.7,15.5c-8.7,7.3-20.6,6.6-28.2-1c-7.6-7.6-8.5-19.8-0.8-28.2
			c9.9-10.8,20.3-21.2,31.1-31.2c8.5-7.8,20.3-7.3,28.2,0.1c8.2,7.7,8.8,20.1,0.9,29.2C385.7,719.7,380.2,724.6,375,729.8z"/>
		<path class="st0" d="M346.8,373.3c-5.2-5.2-10.8-10.1-15.5-15.7c-7.3-8.7-6.6-20.6,1-28.2c7.6-7.6,19.8-8.5,28.2-0.8
			c10.8,9.9,21.2,20.3,31.2,31.1c7.8,8.5,7.3,20.3-0.1,28.2c-7.7,8.2-20.1,8.8-29.2,0.9C356.8,384,351.9,378.5,346.8,373.3z"/>
		<path class="st0" d="M703.3,345.5c5.2-5.2,10.1-10.8,15.7-15.5c8.7-7.3,20.6-6.6,28.2,1c7.6,7.6,8.5,19.8,0.8,28.2
			c-9.9,10.8-20.3,21.2-31.1,31.2c-8.5,7.8-20.3,7.3-28.2-0.1c-8.2-7.7-8.8-20.1-0.9-29.2C692.5,355.6,698,350.7,703.3,345.5z"/>
		<path class="st0" d="M701.3,729.6c-4.9-4.9-10-9.6-14.6-14.7c-8.2-9.1-8.1-21.1-0.3-29.2c7.9-8.2,20.2-8.8,29.1-0.6
			c10.5,9.7,20.6,19.8,30.2,30.2c8.2,8.8,7.6,21.3-0.5,29.1c-8.1,7.8-20.1,7.9-29.2-0.3C710.9,739.6,706.2,734.5,701.3,729.6z"/>
	</g>
</g>
<path class="st1" d="M467.8,435.2c-16.7,54.9-8,103.1,31.8,142.6c39.4,39.1,87.2,47.6,140.8,31.3c-24.3,38.4-74.3,58.4-123,50.2
	c-47.7-8-87.3-45.8-99-94.5C406.8,516.8,425.7,465.7,467.8,435.2z"/>
</svg>
