<?xml version="1.0" encoding="utf-8"?>
<!-- Generator: Adobe Illustrator 27.3.1, SVG Export Plug-In . SVG Version: 6.00 Build 0)  -->
<svg version="1.1" id="Layer_1" xmlns="http://www.w3.org/2000/svg" xmlns:xlink="http://www.w3.org/1999/xlink" x="0px" y="0px"
	 viewBox="0 0 1080 1073.2" style="enable-background:new 0 0 1080 1073.2;" xml:space="preserve">
<style type="text/css">
	.st0{fill:#7352C7;}
</style>
<path class="st0" d="M577.6,512.2l-5.8,4.5c3.4,5.5,5.5,11.9,5.7,18.8l-13.2-4.7v-8c0-5.6-4.6-10.2-10.2-10.2h-27.3
	c-1.9,0-3.6,0.5-5.2,1.4l-5.9-5.9c6.5-5.6,15-9,24.3-9c11.1,0,21,4.8,27.8,12.4l5.2-5.2c-8.2-8.9-20-14.5-33-14.5
	c-24.8,0-44.8,20.1-44.8,44.8c0,24.8,20.1,44.8,44.8,44.8s44.8-20.1,44.8-44.8C584.8,527.6,582.2,519.2,577.6,512.2z M523.9,522.8
	c0-1.6,1.3-2.8,2.8-2.8h27.3c1.6,0,2.8,1.3,2.8,2.8v27.3c0,1.6-1.3,2.8-2.8,2.8h-27.3c-1.6,0-2.8-1.3-2.8-2.8V522.8z M502.5,536.6
	c0-8.8,3-16.9,8.1-23.2l6.4,6.4c-0.3,0.9-0.4,1.9-0.4,3v27.3c0,1.4,0.3,2.7,0.8,3.9l-6,6.7C505.8,554.2,502.5,545.8,502.5,536.6z
	 M516.6,565.9l5.9-6.6c1.3,0.6,2.8,0.9,4.3,0.9h21.4l5.3,11.4c-4.2,1.6-8.7,2.5-13.5,2.5C531.1,574.1,523,571,516.6,565.9z
	 M560,568.3l-3.9-8.3c4.6-1,8.1-5.1,8.1-9.9v-11.6l12.7,4.5C575.1,553.7,568.8,562.8,560,568.3z"/>
</svg>
