<svg version="1.2" xmlns="http://www.w3.org/2000/svg" viewBox="0 0 90 91" width="90" height="91">
	<title>dashboard</title>
	<style>
		.s0 { fill: #7352c7 } 
	</style>
	<path class="s0" d="m82.6 21.2l-5.8 4.5c3.4 5.5 5.5 11.9 5.7 18.8l-13.2-4.7v-8c0-5.6-4.6-10.2-10.2-10.2h-27.3c-1.9 0-3.6 0.5-5.2 1.4l-5.9-5.9c6.5-5.6 15-9 24.3-9 11.1 0 21 4.8 27.8 12.4l5.2-5.2c-8.2-8.9-20-14.5-33-14.5-24.8 0-44.8 20.1-44.8 44.8 0 24.8 20.1 44.8 44.8 44.8 24.7 0 44.8-20.1 44.8-44.8 0-9-2.6-17.4-7.2-24.4zm-53.7 10.6c0-1.6 1.3-2.8 2.8-2.8h27.3c1.6 0 2.8 1.3 2.8 2.8v27.3c0 1.6-1.3 2.8-2.8 2.8h-27.3c-1.6 0-2.8-1.3-2.8-2.8zm-21.4 13.8c0-8.8 3-16.9 8.1-23.2l6.4 6.4c-0.3 0.9-0.4 1.9-0.4 3v27.3c0 1.4 0.3 2.7 0.8 3.9l-6 6.7c-5.6-6.5-8.9-14.9-8.9-24.1zm14.1 29.3l5.9-6.6c1.3 0.6 2.8 0.9 4.3 0.9h21.4l5.3 11.4c-4.2 1.6-8.7 2.5-13.5 2.5-8.9 0-17-3.1-23.4-8.2zm43.4 2.4l-3.9-8.3c4.6-1 8.1-5.1 8.1-9.9v-11.6l12.7 4.5c-1.8 10.7-8.1 19.8-16.9 25.3z"/>
</svg>