<svg version="1.2" xmlns="http://www.w3.org/2000/svg" viewBox="0 0 264 260" width="264" height="260">
	<title>edit</title>
	<defs>
		<linearGradient id="g1" x2="1" gradientUnits="userSpaceOnUse" gradientTransform="matrix(176.229,0,0,176.362,28.335,122.695)">
			<stop offset="0" stop-color="#7352c7"/>
			<stop offset="1" stop-color="#6f42c1"/>
		</linearGradient>
		<linearGradient id="g2" x2="1" gradientUnits="userSpaceOnUse" gradientTransform="matrix(263.135,0,0,18.555,.433,250.033)">
			<stop offset="0" stop-color="#7352c7"/>
			<stop offset="1" stop-color="#6f42c1"/>
		</linearGradient>
		<linearGradient id="g3" x2="1" gradientUnits="userSpaceOnUse" gradientTransform="matrix(76.202,0,0,75.804,163.122,37.882)">
			<stop offset="0" stop-color="#7352c7"/>
			<stop offset="1" stop-color="#6f42c1"/>
		</linearGradient>
	</defs>
	<style>
		.s0 { fill: url(#g1) } 
		.s1 { fill: url(#g2) } 
		.s2 { fill: url(#g3) } 
	</style>
	<g>
		<path fill-rule="evenodd" class="s0" d="m148.5 34.5c18.9 18.8 37.3 37.3 56 56-0.9 1-2.2 2.4-3.5 3.7-34.3 34.3-69 68.4-102.8 103.2-8.7 9-18.9 10.6-30 11.5-7.4 0.6-14.8 1.3-22.3 1.9-10.6 0.9-18.3-6.3-17.6-16.9 0.8-11.6 1.5-23.3 3.2-34.8 0.8-5 3-10.6 6.4-14.2 36.2-36.8 72.8-73.2 109.3-109.7 0.6-0.3 1.1-0.6 1.3-0.7z"/>
		<path fill-rule="evenodd" class="s1" d="m132.7 240.8q58.5 0 117 0c1.9 0 3.8-0.1 5.7 0.1 4.9 0.5 7.7 3.6 8.1 8.2 0.4 4.7-2 8.2-6.6 9.5-2.2 0.6-4.5 0.6-6.8 0.6-78.7 0-157.5 0-236.2 0-1.5 0-3.1 0.1-4.6-0.1-5.3-0.7-9.1-4.8-8.8-9.6 0.2-4.9 4-8.6 9.6-8.7 11.5-0.2 22.9-0.1 34.4-0.1 29.3 0.1 58.8 0.1 88.2 0.1z"/>
		<path fill-rule="evenodd" class="s2" d="m163.1 20c10.9-13.2 23.7-24.3 42.4-18.4 16.7 5.2 28.5 17.2 32.9 34.5 3.7 14.5-3.9 28.1-19.6 39.7-18.5-18.5-36.9-37-55.7-55.8z"/>
	</g>
</svg>