<?xml version="1.0" encoding="utf-8"?>
<!-- Generator: Adobe Illustrator 27.3.1, SVG Export Plug-In . SVG Version: 6.00 Build 0)  -->
<svg version="1.1" id="Layer_1" xmlns="http://www.w3.org/2000/svg" xmlns:xlink="http://www.w3.org/1999/xlink" x="0px" y="0px"
	 viewBox="0 0 1080 1073.2" style="enable-background:new 0 0 1080 1073.2;" xml:space="preserve">
<style type="text/css">
	.st0{fill-rule:evenodd;clip-rule:evenodd;fill:url(#SVGID_1_);}
	.st1{fill-rule:evenodd;clip-rule:evenodd;fill:url(#SVGID_00000013888885442061118260000005037605921915262869_);}
	.st2{fill-rule:evenodd;clip-rule:evenodd;fill:url(#SVGID_00000022549296957185209990000001904574051772747180_);}
</style>
<g>
	<linearGradient id="SVGID_1_" gradientUnits="userSpaceOnUse" x1="436.3346" y1="529.6946" x2="612.5634" y2="529.6946">
		<stop  offset="0" style="stop-color:#7352C7"/>
		<stop  offset="1" style="stop-color:#6F42C1"/>
	</linearGradient>
	<path class="st0" d="M556.5,441.5c18.9,18.8,37.3,37.3,56,56c-0.9,1-2.2,2.4-3.5,3.7c-34.3,34.3-69,68.4-102.8,103.2
		c-8.7,9-18.9,10.6-30,11.5c-7.4,0.6-14.8,1.3-22.3,1.9c-10.6,0.9-18.3-6.3-17.6-16.9c0.8-11.6,1.5-23.3,3.2-34.8
		c0.8-5,3-10.6,6.4-14.2c36.2-36.8,72.8-73.2,109.3-109.7C555.8,441.9,556.3,441.6,556.5,441.5z"/>
	
		<linearGradient id="SVGID_00000072987225670291325010000015466452579154570370_" gradientUnits="userSpaceOnUse" x1="408.4326" y1="657.0333" x2="671.5674" y2="657.0333">
		<stop  offset="0" style="stop-color:#7352C7"/>
		<stop  offset="1" style="stop-color:#6F42C1"/>
	</linearGradient>
	<path style="fill-rule:evenodd;clip-rule:evenodd;fill:url(#SVGID_00000072987225670291325010000015466452579154570370_);" d="
		M540.7,647.8c39,0,78,0,117,0c1.9,0,3.8-0.1,5.7,0.1c4.9,0.5,7.7,3.6,8.1,8.2c0.4,4.7-2,8.2-6.6,9.5c-2.2,0.6-4.5,0.6-6.8,0.6
		c-78.7,0-157.5,0-236.2,0c-1.5,0-3.1,0.1-4.6-0.1c-5.3-0.7-9.1-4.8-8.8-9.6c0.2-4.9,4-8.6,9.6-8.7c11.5-0.2,22.9-0.1,34.4-0.1
		C481.8,647.8,511.3,647.8,540.7,647.8z"/>
	
		<linearGradient id="SVGID_00000007407707482179595910000010615187805443709832_" gradientUnits="userSpaceOnUse" x1="571.1224" y1="444.8821" x2="647.3248" y2="444.8821">
		<stop  offset="0" style="stop-color:#7352C7"/>
		<stop  offset="1" style="stop-color:#6F42C1"/>
	</linearGradient>
	<path style="fill-rule:evenodd;clip-rule:evenodd;fill:url(#SVGID_00000007407707482179595910000010615187805443709832_);" d="
		M571.1,427c10.9-13.2,23.7-24.3,42.4-18.4c16.7,5.2,28.5,17.2,32.9,34.5c3.7,14.5-3.9,28.1-19.6,39.7
		C608.3,464.3,589.9,445.8,571.1,427z"/>
</g>
</svg>
