<svg width="24" height="25" viewBox="0 0 24 25" fill="none" xmlns="http://www.w3.org/2000/svg">
<path d="M11.4439 22.4684C10.5865 21.7803 2.62416 14.0372 2.53516 13.9525C2.1835 13.6009 1.96208 13.2362 1.9013 12.9019C1.83835 12.5545 1.94472 12.2506 2.22691 11.9684C2.48958 11.7058 2.81085 11.5669 3.156 11.5669C3.57713 11.5669 4.00911 11.7666 4.36945 12.1291L7.97942 15.5979C8.04237 15.6587 8.12486 15.6891 8.20518 15.6891C8.28984 15.6891 8.37232 15.6566 8.43528 15.5936C8.56118 15.4677 8.56118 15.2636 8.43745 15.1377L2.67409 9.18553C2.09667 8.60811 1.82532 7.72461 2.51128 7.03866C2.77395 6.77599 3.09522 6.63706 3.44037 6.63706C3.86149 6.63706 4.29347 6.83677 4.65382 7.19929L10.5496 12.9475C10.6125 13.0082 10.695 13.0408 10.7775 13.0408C10.86 13.0408 10.9447 13.0082 11.0076 12.9453C11.1335 12.8194 11.1357 12.6153 11.0098 12.4873L3.92879 5.22825C3.601 4.90046 3.40346 4.50755 3.36873 4.1255C3.33617 3.73694 3.47293 3.37659 3.76598 3.08354C4.02864 2.82088 4.34991 2.68195 4.69506 2.68195C5.11619 2.68195 5.54817 2.88166 5.90852 3.242L13.1306 10.2839C13.1936 10.3447 13.2761 10.3773 13.3586 10.3773C13.441 10.3773 13.5257 10.3447 13.5887 10.2818C13.7146 10.1559 13.7167 9.95181 13.5908 9.82374L8.34628 4.43375C8.01632 4.10379 7.81878 3.71306 7.78622 3.331C7.75366 2.94244 7.89042 2.58209 8.18347 2.28904C8.44613 2.02638 8.7674 1.88745 9.11255 1.88745C9.53368 1.88745 9.96566 2.08716 10.326 2.44968C12.2493 4.33823 17.2703 9.2767 17.4396 9.45905C18.0843 9.90405 18.2145 9.23112 18.2471 8.7948C18.284 8.28684 17.7022 6.51333 18.0409 4.91783C18.6096 2.797 20.2485 3.14432 20.2854 3.16168C21.1841 3.58281 21.0126 4.21233 20.6935 5.47788L20.661 5.72752C20.3267 7.38163 22.6233 12.2832 22.7927 12.6501C23.6935 14.6211 24.7311 18.6175 21.2948 22.0538C17.5286 25.82 12.8658 23.8902 11.4439 22.4684Z" fill="url(#paint0_radial_758_8323)"/>
<path d="M16.2758 24.5829C13.9661 24.5829 12.0016 23.478 11.2266 22.7117C10.5298 22.143 6.13187 17.897 2.55012 14.4216C2.40468 14.2805 2.32002 14.2002 2.31134 14.1893C1.9054 13.7834 1.6536 13.3601 1.58196 12.9607C1.49947 12.507 1.64057 12.0967 1.99658 11.7385C2.32219 11.4129 2.72161 11.2414 3.15576 11.2414C3.66589 11.2414 4.17819 11.4759 4.59931 11.8992L8.20494 15.3637L2.43941 9.41147C1.77516 8.74721 1.44086 7.64664 2.28094 6.80873C2.60656 6.48312 3.00598 6.31163 3.44013 6.31163C3.95026 6.31163 4.46255 6.54607 4.88368 6.96937L10.7751 12.7132L3.69628 5.45635C3.31857 5.07864 3.0863 4.61627 3.04505 4.15607C3.00381 3.66547 3.17313 3.21613 3.53564 2.85361C3.86126 2.528 4.26067 2.35651 4.69483 2.35651C5.20278 2.35651 5.71508 2.58878 6.13838 3.01208L13.3583 10.0518L8.11377 4.66185C7.73388 4.28197 7.50161 3.8196 7.46254 3.3594C7.42129 2.87098 7.59061 2.42163 7.95313 2.05911C8.27874 1.7335 8.67816 1.56201 9.11231 1.56201C9.62244 1.56201 10.1347 1.79645 10.5559 2.21975L12.121 3.75448C14.9104 6.48963 17.2418 8.77978 17.4914 9.03593C17.613 9.13361 17.7715 9.17051 17.8388 9.13795C17.8822 9.11624 17.9299 9.01639 17.9212 8.80582C17.9082 8.4368 17.8561 7.97877 17.8018 7.49469C17.6933 6.52219 17.5804 5.51496 17.7215 4.85071C18.0298 3.69804 18.6354 3.20962 19.0869 2.99905C19.7078 2.71251 20.3091 2.81237 20.4241 2.86664C21.5529 3.3963 21.3293 4.28197 21.0211 5.51062L21.0146 5.54101L20.9798 5.79499C20.7541 6.90641 21.9133 9.97803 23.0724 12.4809L23.0898 12.5156C23.8648 14.2088 25.2606 18.5525 21.5269 22.2862C19.8098 23.9989 17.9516 24.5829 16.2758 24.5829ZM3.15576 11.8926C2.89961 11.8926 2.65649 11.999 2.45678 12.1987C2.25055 12.4049 2.17892 12.6046 2.22233 12.8434C2.27009 13.1061 2.46329 13.4187 2.76502 13.7226C2.76719 13.7248 2.85402 13.8094 3.00381 13.9527C8.08772 18.8868 11.1572 21.8195 11.6478 22.2146L11.6738 22.2385C12.8721 23.4367 17.3243 25.5641 21.0645 21.8239C24.5095 18.3789 23.2135 14.3564 22.495 12.7848L22.4798 12.7523C21.7331 11.1416 20.0356 7.2342 20.3373 5.67559L20.3872 5.34998C20.7215 4.02148 20.7411 3.74362 20.1745 3.47011C20.0073 3.43972 18.8091 3.29428 18.351 5.00266C18.236 5.54752 18.3467 6.5439 18.4444 7.42305C18.5008 7.92016 18.5529 8.39121 18.566 8.78412C18.5877 9.40278 18.2946 9.6394 18.1166 9.72623C17.7541 9.90206 17.3221 9.75227 17.0529 9.52652L17.0247 9.50047C16.8923 9.3572 13.7425 6.26821 11.6586 4.22336L10.0913 2.68429C9.55732 2.14812 8.86919 2.05911 8.40682 2.52149C8.18106 2.74724 8.07903 3.01208 8.10291 3.30513C8.12896 3.61121 8.29394 3.93031 8.56962 4.20599L13.825 9.59598C14.0725 9.84779 14.0725 10.2602 13.8207 10.512C13.5797 10.753 13.1543 10.7573 12.9068 10.5186L5.68035 3.47445C5.14634 2.94044 4.45604 2.85144 3.99584 3.31381C3.77008 3.53957 3.66806 3.8044 3.69194 4.09745C3.72016 4.40353 3.88513 4.7248 4.15865 4.99615L11.2418 12.2595C11.4915 12.5113 11.4893 12.9237 11.2375 13.1756C10.9965 13.4165 10.5711 13.4209 10.3236 13.1821L4.42565 7.43174C3.89165 6.89339 3.20135 6.80656 2.74115 7.26893C2.17892 7.83115 2.47848 8.52797 2.90395 8.95561L8.67165 14.9122C8.91912 15.164 8.91695 15.5742 8.66514 15.8239C8.42201 16.067 8.00089 16.0692 7.75342 15.8326L4.14345 12.3637C3.83955 12.0576 3.49006 11.8926 3.15576 11.8926Z" fill="#EDA600"/>
<path d="M16.9209 9.24854C15.7291 11.682 15.8832 15.0879 17.6719 17.8209C17.8738 18.1899 18.219 18.0097 18.0431 17.6298C15.8832 13.0083 18.1473 9.67834 18.1473 9.67834L16.9209 9.24854Z" fill="#EDA600"/>
<path d="M12.2344 0.122733C12.8899 -0.0487565 13.5889 -0.0335611 14.2684 0.124904C14.9435 0.287711 15.6186 0.63069 16.12 1.19075C16.6106 1.74646 16.9124 2.42156 17.0144 3.12923C17.1099 3.83038 17.0209 4.55325 16.6888 5.15238C16.6497 4.47944 16.5325 3.86078 16.3349 3.28987C16.2329 3.0055 16.1135 2.73415 15.9681 2.478C15.8248 2.22403 15.6555 1.97222 15.4753 1.766C15.1085 1.3427 14.6114 1.01274 14.0535 0.756594C13.4934 0.491762 12.8834 0.296394 12.2344 0.122733Z" fill="#B0BEC5"/>
<path d="M12.4146 2.18065C12.7771 1.95055 13.2308 1.90279 13.6584 1.97877C14.0904 2.05474 14.5028 2.26965 14.8284 2.56704C15.1519 2.86878 15.382 3.24866 15.5252 3.64374C15.5947 3.84128 15.6294 4.04967 15.662 4.25155C15.6729 4.45994 15.6729 4.66833 15.6403 4.87673C15.4905 4.71826 15.3733 4.5598 15.2626 4.40567C15.1345 4.26023 15.0347 4.10611 14.9196 3.96501C14.6938 3.68498 14.4746 3.431 14.238 3.20524C13.9949 2.986 13.7387 2.7928 13.4413 2.62565C13.1461 2.45416 12.814 2.31089 12.4146 2.18065Z" fill="#90A4AE"/>
<path d="M0.00414897 15.9346C0.310226 16.5337 0.629327 17.0894 1.00053 17.58C1.36955 18.0706 1.79285 18.4874 2.28561 18.7587C2.5244 18.8911 2.80877 19.0062 3.08662 19.093C3.36665 19.182 3.65753 19.2428 3.9571 19.284C4.55622 19.3579 5.18574 19.3448 5.85217 19.2428C5.33553 19.6922 4.64523 19.9309 3.9419 19.983C3.22989 20.0308 2.50703 19.8767 1.86015 19.512C1.20892 19.1408 0.731352 18.5503 0.431788 17.923C0.132224 17.2913 -0.0284124 16.6118 0.00414897 15.9346Z" fill="#B0BEC5"/>
<path d="M2.05549 15.6807C2.26605 16.0454 2.47444 16.3384 2.70237 16.5946C2.92813 16.8507 3.17126 17.0613 3.43609 17.2523C3.70526 17.4368 4.00049 17.5996 4.32176 17.7624C4.48239 17.8449 4.65388 17.91 4.8232 18.0055C4.99903 18.0815 5.17704 18.1618 5.36372 18.2769C5.16618 18.3507 4.9643 18.3941 4.75808 18.4267C4.55403 18.4354 4.34347 18.4462 4.13507 18.418C3.71829 18.3615 3.3015 18.2161 2.93682 17.9621C2.57864 17.7038 2.28125 17.3456 2.11844 16.9397C1.95346 16.5359 1.90571 16.0844 2.05549 15.6807Z" fill="#90A4AE"/>
<defs>
<radialGradient id="paint0_radial_758_8323" cx="0" cy="0" r="1" gradientUnits="userSpaceOnUse" gradientTransform="translate(8.08279 7.39463) rotate(-45) scale(19.7555)">
<stop offset="0.3533" stop-color="#FFCA28"/>
<stop offset="0.8723" stop-color="#FFB300"/>
</radialGradient>
</defs>
</svg>
