<svg version="1.2" xmlns="http://www.w3.org/2000/svg" viewBox="0 0 194 157" width="194" height="157">
	<title>filter</title>
	<defs>
		<linearGradient id="g1" x2="1" gradientUnits="userSpaceOnUse" gradientTransform="matrix(192.256,0,0,77.679,.872,39.369)">
			<stop offset="0" stop-color="#7352c7"/>
			<stop offset="1" stop-color="#6f42c1"/>
		</linearGradient>
		<linearGradient id="g2" x2="1" gradientUnits="userSpaceOnUse" gradientTransform="matrix(192.207,0,0,77.358,.919,117.964)">
			<stop offset="0" stop-color="#7352c7"/>
			<stop offset="1" stop-color="#6f42c1"/>
		</linearGradient>
	</defs>
	<style>
		.s0 { fill: url(#g1) } 
		.s1 { fill: url(#g2) } 
	</style>
	<g>
		<path fill-rule="evenodd" class="s0" d="m19.1 45c-4 0-7.9 0-11.8 0-4-0.1-6.6-2.3-6.5-5.7 0.1-3.2 2.5-5.5 6.3-5.6 4-0.1 8 0 12.1 0 2-10.6 7-19.2 15.5-25.5 6.7-5 14.4-7.5 22.7-7.6 18.8-0.2 31.8 10.8 39 33.1 1.3 0 2.8 0 4.2 0q41.1 0 82.2 0 1.5 0 3 0c4.6 0.1 7.3 2.3 7.2 5.9-0.1 3.4-2.6 5.4-7.1 5.4-28.3 0-56.6 0-84.8 0-1.5 0-3 0-4.8 0-2.4 11.9-8.3 21.4-18.8 27.8-7.3 4.4-15.3 6-23.8 5.3-16.8-1.5-29.6-13.5-34.6-33.1zm66.2-5.7c-0.1-15.2-12.4-27.5-27.5-27.5-15.2 0-27.7 12.6-27.6 27.8 0.1 15.1 12.6 27.3 27.7 27.2 15.3 0 27.4-12.3 27.4-27.5z"/>
		<path fill-rule="evenodd" class="s1" d="m175.1 112.3c3.9 0 7.8-0.1 11.8 0 3.8 0.1 6.2 2.3 6.3 5.5 0 3.2-2.4 5.6-6.1 5.7-4 0.1-8 0-12.2 0-2.1 10.9-7.3 19.8-16.3 26.1-6.5 4.6-13.8 6.9-21.8 7-18.7 0.2-30.4-9.6-39.3-33.1-1.4 0-2.9 0-4.4 0-27.8 0-55.6 0-83.3 0-1.4 0-2.8 0.1-4.1-0.2-3.1-0.7-4.9-2.7-4.6-5.9 0.3-3.1 2.2-4.9 5.4-5.1 1.1-0.1 2.2 0 3.4 0 27.7 0 55.3 0 83 0 1.5 0 3 0 4.6 0 5.6-21.2 18.5-33.7 41.2-33 17.9 0.5 29.3 11.2 36.4 33zm-38.8-21.9c-15.2-0.1-27.5 12.1-27.5 27.3-0.1 15.1 12.1 27.6 27.2 27.7 15.2 0.1 27.8-12.4 27.8-27.6 0-15.1-12.3-27.4-27.5-27.4z"/>
	</g>
</svg>