<?xml version="1.0" encoding="utf-8"?>
<!-- Generator: Adobe Illustrator 27.3.1, SVG Export Plug-In . SVG Version: 6.00 Build 0)  -->
<svg version="1.1" id="Layer_1" xmlns="http://www.w3.org/2000/svg" xmlns:xlink="http://www.w3.org/1999/xlink" x="0px" y="0px"
	 viewBox="0 0 1080 1073.2" style="enable-background:new 0 0 1080 1073.2;" xml:space="preserve">
<style type="text/css">
	.st0{fill-rule:evenodd;clip-rule:evenodd;fill:url(#SVGID_1_);}
	.st1{fill-rule:evenodd;clip-rule:evenodd;fill:url(#SVGID_00000006691185793160456280000001409366243692086695_);}
</style>
<g>
	<linearGradient id="SVGID_1_" gradientUnits="userSpaceOnUse" x1="443.8718" y1="497.3688" x2="636.1282" y2="497.3688">
		<stop  offset="0" style="stop-color:#7352C7"/>
		<stop  offset="1" style="stop-color:#6F42C1"/>
	</linearGradient>
	<path class="st0" d="M462.1,503c-4,0-7.9,0-11.8,0c-4-0.1-6.6-2.3-6.5-5.7c0.1-3.2,2.5-5.5,6.3-5.6c4-0.1,8,0,12.1,0
		c2-10.6,7-19.2,15.5-25.5c6.7-5,14.4-7.5,22.7-7.6c18.8-0.2,31.8,10.8,39,33.1c1.3,0,2.8,0,4.2,0c27.4,0,54.8,0,82.2,0c1,0,2,0,3,0
		c4.6,0.1,7.3,2.3,7.2,5.9c-0.1,3.4-2.6,5.4-7.1,5.4c-28.3,0-56.6,0-84.8,0c-1.5,0-3,0-4.8,0c-2.4,11.9-8.3,21.4-18.8,27.8
		c-7.3,4.4-15.3,6-23.8,5.3C479.9,534.6,467.1,522.6,462.1,503z M528.3,497.3c-0.1-15.2-12.4-27.5-27.5-27.5
		c-15.2,0-27.7,12.6-27.6,27.8c0.1,15.1,12.6,27.3,27.7,27.2C516.2,524.8,528.3,512.5,528.3,497.3z"/>
	
		<linearGradient id="SVGID_00000031200382532005280460000017338288869705462168_" gradientUnits="userSpaceOnUse" x1="443.919" y1="575.9642" x2="636.1256" y2="575.9642">
		<stop  offset="0" style="stop-color:#7352C7"/>
		<stop  offset="1" style="stop-color:#6F42C1"/>
	</linearGradient>
	<path style="fill-rule:evenodd;clip-rule:evenodd;fill:url(#SVGID_00000031200382532005280460000017338288869705462168_);" d="
		M618.1,570.3c3.9,0,7.8-0.1,11.8,0c3.8,0.1,6.2,2.3,6.3,5.5c0,3.2-2.4,5.6-6.1,5.7c-4,0.1-8,0-12.2,0c-2.1,10.9-7.3,19.8-16.3,26.1
		c-6.5,4.6-13.8,6.9-21.8,7c-18.7,0.2-30.4-9.6-39.3-33.1c-1.4,0-2.9,0-4.4,0c-27.8,0-55.6,0-83.3,0c-1.4,0-2.8,0.1-4.1-0.2
		c-3.1-0.7-4.9-2.7-4.6-5.9c0.3-3.1,2.2-4.9,5.4-5.1c1.1-0.1,2.2,0,3.4,0c27.7,0,55.3,0,83,0c1.5,0,3,0,4.6,0
		c5.6-21.2,18.5-33.7,41.2-33C599.6,537.8,611,548.5,618.1,570.3z M579.3,548.4c-15.2-0.1-27.5,12.1-27.5,27.3
		c-0.1,15.1,12.1,27.6,27.2,27.7c15.2,0.1,27.8-12.4,27.8-27.6C606.8,560.7,594.5,548.4,579.3,548.4z"/>
</g>
</svg>
