<?xml version="1.0" encoding="utf-8"?>
<!-- Generator: Adobe Illustrator 27.3.1, SVG Export Plug-In . SVG Version: 6.00 Build 0)  -->
<svg version="1.1" id="Layer_1" xmlns="http://www.w3.org/2000/svg" xmlns:xlink="http://www.w3.org/1999/xlink" x="0px" y="0px"
	 viewBox="0 0 1080 1073.2" style="enable-background:new 0 0 1080 1073.2;" xml:space="preserve">
<style type="text/css">
	.st0{fill:#7352C7;}
</style>
<g>
	<path class="st0" d="M555.2,560.5c-0.9-0.9-1.7-1.4-2.1-2.2c-1.7-3.1-3.2-6.3-4.8-9.5c-1.9-3.9-4.7-6.8-8.7-8.7
		c-3.1-1.5-6.3-3-9.3-4.7c-0.8-0.4-1.7-1.4-1.7-2.2c0-0.7,1-1.7,1.7-2.2c3.1-1.7,6.3-3.2,9.5-4.8c3.8-1.8,6.6-4.7,8.4-8.5
		c1.5-3.2,3.1-6.4,4.8-9.5c0.4-0.7,1.4-1.6,2.1-1.6c0.8,0,1.8,0.9,2.2,1.7c1.8,3.2,3.3,6.5,5,9.8c1.8,3.6,4.4,6.2,8,8
		c3.3,1.6,6.6,3.2,9.8,4.9c0.7,0.4,1.7,1.4,1.6,2.1c0,0.8-0.9,1.8-1.7,2.2c-3.2,1.8-6.5,3.3-9.8,4.9c-3.6,1.8-6.2,4.4-8,8
		c-1.6,3.3-3.3,6.7-5,10C556.8,559.1,556.1,559.6,555.2,560.5z"/>
	<path class="st0" d="M521.2,544.6c0.4,0.4,0.7,0.5,0.9,0.8c0.2,0.3,0.3,0.6,0.5,0.9c1.5,4.3,4.4,7.1,8.7,8.6c0.6,0.2,1,0.8,1.5,1.3
		c-0.5,0.5-1,1-1.6,1.4c-0.4,0.3-0.8,0.5-1.2,0.6c-3.3,1.2-5.4,3.4-6.7,6.7c-0.4,1-1.3,1.9-1.9,2.9c-0.7-0.9-1.6-1.8-2-2.8
		c-1.4-3.9-4.4-5.8-7.9-7.3c-0.6-0.3-1.1-0.9-1.6-1.4c0.5-0.5,1-1,1.6-1.4c0.7-0.4,1.4-0.8,2.1-1.1c2.4-1,4.2-2.7,5.2-5.2
		c0.4-1,0.9-2,1.5-2.9C520.5,545.3,520.9,545,521.2,544.6z"/>
	<path class="st0" d="M521.4,516.8c-0.3,0.5-0.5,0.8-0.7,1c-0.3,0.2-0.6,0.4-0.9,0.5c-4.3,1.5-7.2,4.4-8.8,8.7
		c-0.2,0.6-0.8,1-1.3,1.4c-0.4-0.5-1-0.9-1.3-1.4c-0.5-0.8-0.9-1.6-1.2-2.4c-1-2.4-2.7-4.1-5.1-5.1c-0.8-0.4-1.7-0.8-2.4-1.2
		c-0.5-0.3-0.9-0.9-1.4-1.3c0.5-0.4,1-0.9,1.5-1.3c0.4-0.3,0.8-0.5,1.2-0.6c3.3-1.2,5.5-3.5,6.8-6.8c0.4-1,1.3-1.8,2-2.8
		c0.6,0.9,1.5,1.7,1.8,2.8c1.4,4,4.5,5.9,8.1,7.4C520.3,515.9,520.8,516.3,521.4,516.8z"/>
</g>
</svg>
