<svg version="1.2" xmlns="http://www.w3.org/2000/svg" viewBox="0 0 406 470" width="406" height="470">
	<title>notification</title>
	<style>
		.s0 { fill: #7352c7 } 
	</style>
	<g>
		<path fill-rule="evenodd" class="s0" d="m203.3 405.2c-51.3 0-102.6-0.3-153.9 0.1-19 0.2-34.2-5.8-43.4-22.7-9.4-17.3-6.2-33.9 4.9-49.7 9.5-13.6 18.8-27.5 27.5-41.7 2.6-4.2 4.3-9.7 4.3-14.7 0.3-38.3 0.1-76.6 0.2-115 0.2-83.1 61-152 141.7-160.6 83.5-9 158 45.4 175.1 128.4 2.2 10.7 2.9 21.8 3.1 32.7 0.3 38 0 75.9 0.3 113.9 0 5.3 1.8 11.2 4.6 15.6 9.1 14.7 19 29 28.7 43.2 10.3 15.1 12.4 30.9 3.9 47.1-8.5 16.2-22.8 23.3-41.1 23.2-52 0.1-103.9 0.2-155.9 0.2z"/>
		<path fill-rule="evenodd" class="s0" d="m262.5 426.7c-9.1 26.4-32.8 42.6-60.2 42.5-26.9-0.2-50.4-16.8-58.9-42.5 20.1 0 39.8 0 59.6 0 19.5 0 39.1 0 59.5 0z"/>
	</g>
</svg>