<?xml version="1.0" encoding="utf-8"?>
<!-- Generator: Adobe Illustrator 27.3.1, SVG Export Plug-In . SVG Version: 6.00 Build 0)  -->
<svg version="1.1" id="Layer_1" xmlns="http://www.w3.org/2000/svg" xmlns:xlink="http://www.w3.org/1999/xlink" x="0px" y="0px"
	 viewBox="0 0 1080 1073.2" style="enable-background:new 0 0 1080 1073.2;" xml:space="preserve">
<style type="text/css">
	.st0{fill-rule:evenodd;clip-rule:evenodd;fill:#7352C7;}
</style>
<g>
	<path class="st0" d="M540.3,707.2c-51.3,0-102.6-0.3-153.9,0.1c-19,0.2-34.2-5.8-43.4-22.7c-9.4-17.3-6.2-33.9,4.9-49.7
		c9.5-13.6,18.8-27.5,27.5-41.7c2.6-4.2,4.3-9.7,4.3-14.7c0.3-38.3,0.1-76.6,0.2-115c0.2-83.1,61-152,141.7-160.6
		c83.5-9,158,45.4,175.1,128.4c2.2,10.7,2.9,21.8,3.1,32.7c0.3,38,0,75.9,0.3,113.9c0,5.3,1.8,11.2,4.6,15.6
		c9.1,14.7,19,29,28.7,43.2c10.3,15.1,12.4,30.9,3.9,47.1c-8.5,16.2-22.8,23.3-41.1,23.2C644.2,707.1,592.3,707.2,540.3,707.2z"/>
	<path class="st0" d="M599.5,728.7c-9.1,26.4-32.8,42.6-60.2,42.5c-26.9-0.2-50.4-16.8-58.9-42.5c20.1,0,39.8,0,59.6,0
		C559.5,728.7,579.1,728.7,599.5,728.7z"/>
</g>
</svg>
