<svg version="1.2" xmlns="http://www.w3.org/2000/svg" viewBox="0 0 94 64" width="94" height="64">
	<title>pulse</title>
	<style>
		.s0 { fill: #7352c7 } 
	</style>
	<g>
		<path class="s0" d="m49.6 15.7c-0.2 0.8-0.4 1.5-0.6 2.3-2.5 10.2-5 20.5-7.5 30.7-0.6 2.3-1.1 4.7-1.7 7-0.4 1.7-1.9 2.4-3.4 1.8-0.7-0.3-1.2-0.9-1.4-1.6-0.3-1.3-0.7-2.7-1-4-2.1-8.4-4.1-16.7-6.2-25.1 0-0.1-0.1-0.3-0.1-0.5-0.1 0.3-0.2 0.5-0.3 0.7-1.3 4.4-2.6 8.7-3.8 13.1-0.4 1.3-1.2 2-2.6 2-5.9 0-11.7 0-17.6 0-1.4 0-2.3-0.7-2.7-1.8-0.5-1.4 0.5-3 2-3.2q0.6 0 1.2 0c4.9 0 9.7 0 14.6 0 0.9 0 0.9 0 1.1-0.8 2-6.7 3.9-13.3 5.9-20 0.5-1.7 1.9-2.4 3.4-1.8 0.8 0.3 1.2 0.9 1.5 1.7 0.4 1.5 0.8 3 1.1 4.6 1.8 7.4 3.6 14.8 5.5 22.2 0.1 0.6 0.3 1.1 0.4 1.7h0.1c0.2-0.7 0.3-1.5 0.5-2.2 0.8-3.3 1.6-6.6 2.4-9.8 0.9-3.5 1.7-7 2.5-10.5 1.5-6.2 3-12.4 4.6-18.6 0.1-0.6 0.3-1.2 0.5-1.8 0.3-1 1.1-1.5 2.1-1.6 1.1 0 2.1 0.5 2.4 1.4 0.3 0.7 0.3 1.6 0.5 2.3 0.4 2.7 0.8 5.5 1.2 8.2 0.3 2.2 0.6 4.5 1 6.7 0.4 3 0.9 6 1.3 8.9 0.6 4.1 1.2 8.3 1.8 12.4 0.4 2.6 0.7 5.2 1.1 7.8 0 0.1 0.1 0.2 0.2 0.3 0-0.1 0.1-0.3 0.1-0.4 1.2-4.5 2.3-8.9 3.5-13.4 0.4-1.5 0.8-2.9 1.2-4.4 0.4-1.3 1.2-2 2.6-2q11.9 0 23.7 0c1.3 0 2.2 0.6 2.6 1.8 0.5 1.6-0.7 3.2-2.5 3.2-2.5 0-5 0-7.4 0q-7 0-14.1 0c-0.3 0-0.5 0.1-0.6 0.4-2.3 8.9-4.7 17.8-7 26.7-0.1 0.6-0.3 1.1-0.5 1.7-0.3 1-1.3 1.6-2.4 1.6-1 0-2-0.6-2.2-1.6-0.3-1-0.4-2-0.5-3.1-0.4-2.3-0.7-4.6-1-6.9-0.3-2.2-0.6-4.5-1-6.7-0.3-2.3-0.7-4.6-1-6.9-0.4-2.6-0.8-5.3-1.1-7.9-0.4-2.7-0.8-5.5-1.2-8.2-0.3-2-0.6-4.1-0.9-6.1-0.2-0.3-0.3-0.3-0.3-0.3z"/>
	</g>
</svg>