<?xml version="1.0" encoding="utf-8"?>
<!-- Generator: Adobe Illustrator 27.3.1, SVG Export Plug-In . SVG Version: 6.00 Build 0)  -->
<svg version="1.1" id="Layer_1" xmlns="http://www.w3.org/2000/svg" xmlns:xlink="http://www.w3.org/1999/xlink" x="0px" y="0px"
	 viewBox="0 0 1080 1073.2" style="enable-background:new 0 0 1080 1073.2;" xml:space="preserve">
<style type="text/css">
	.st0{fill:#7352C7;}
</style>
<g>
	<path class="st0" d="M542.6,520.7c-0.2,0.8-0.4,1.5-0.6,2.3c-2.5,10.2-5,20.5-7.5,30.7c-0.6,2.3-1.1,4.7-1.7,7
		c-0.4,1.7-1.9,2.4-3.4,1.8c-0.7-0.3-1.2-0.9-1.4-1.6c-0.3-1.3-0.7-2.7-1-4c-2.1-8.4-4.1-16.7-6.2-25.1c0-0.1-0.1-0.3-0.1-0.5
		c-0.1,0.3-0.2,0.5-0.3,0.7c-1.3,4.4-2.6,8.7-3.8,13.1c-0.4,1.3-1.2,2-2.6,2c-5.9,0-11.7,0-17.6,0c-1.4,0-2.3-0.7-2.7-1.8
		c-0.5-1.4,0.5-3,2-3.2c0.4,0,0.8,0,1.2,0c4.9,0,9.7,0,14.6,0c0.9,0,0.9,0,1.1-0.8c2-6.7,3.9-13.3,5.9-20c0.5-1.7,1.9-2.4,3.4-1.8
		c0.8,0.3,1.2,0.9,1.5,1.7c0.4,1.5,0.8,3,1.1,4.6c1.8,7.4,3.6,14.8,5.5,22.2c0.1,0.6,0.3,1.1,0.4,1.7c0,0,0.1,0,0.1,0
		c0.2-0.7,0.3-1.5,0.5-2.2c0.8-3.3,1.6-6.6,2.4-9.8c0.9-3.5,1.7-7,2.5-10.5c1.5-6.2,3-12.4,4.6-18.6c0.1-0.6,0.3-1.2,0.5-1.8
		c0.3-1,1.1-1.5,2.1-1.6c1.1,0,2.1,0.5,2.4,1.4c0.3,0.7,0.3,1.6,0.5,2.3c0.4,2.7,0.8,5.5,1.2,8.2c0.3,2.2,0.6,4.5,1,6.7
		c0.4,3,0.9,6,1.3,8.9c0.6,4.1,1.2,8.3,1.8,12.4c0.4,2.6,0.7,5.2,1.1,7.8c0,0.1,0.1,0.2,0.2,0.3c0-0.1,0.1-0.3,0.1-0.4
		c1.2-4.5,2.3-8.9,3.5-13.4c0.4-1.5,0.8-2.9,1.2-4.4c0.4-1.3,1.2-2,2.6-2c7.9,0,15.8,0,23.7,0c1.3,0,2.2,0.6,2.6,1.8
		c0.5,1.6-0.7,3.2-2.5,3.2c-2.5,0-5,0-7.4,0c-4.7,0-9.4,0-14.1,0c-0.3,0-0.5,0.1-0.6,0.4c-2.3,8.9-4.7,17.8-7,26.7
		c-0.1,0.6-0.3,1.1-0.5,1.7c-0.3,1-1.3,1.6-2.4,1.6c-1,0-2-0.6-2.2-1.6c-0.3-1-0.4-2-0.5-3.1c-0.4-2.3-0.7-4.6-1-6.9
		c-0.3-2.2-0.6-4.5-1-6.7c-0.3-2.3-0.7-4.6-1-6.9c-0.4-2.6-0.8-5.3-1.1-7.9c-0.4-2.7-0.8-5.5-1.2-8.2c-0.3-2-0.6-4.1-0.9-6.1
		C542.7,520.7,542.6,520.7,542.6,520.7z"/>
</g>
</svg>
