<?xml version="1.0" encoding="utf-8"?>
<!-- Generator: Adobe Illustrator 27.3.1, SVG Export Plug-In . SVG Version: 6.00 Build 0)  -->
<svg version="1.1" id="Layer_1" xmlns="http://www.w3.org/2000/svg" xmlns:xlink="http://www.w3.org/1999/xlink" x="0px" y="0px"
	 viewBox="0 0 1080 1073.2" style="enable-background:new 0 0 1080 1073.2;" xml:space="preserve">
<style type="text/css">
	.st0{fill-rule:evenodd;clip-rule:evenodd;fill:#7352C7;}
</style>
<g>
	<path class="st0" d="M540,568.4c-4,0-8,0-12,0c-4.1-0.1-7.3-1.8-9.4-5.4c-4.1-7-8.1-13.9-12.1-20.9c-2-3.6-2-7.2,0-10.8
		c4-7,8-14,12.1-20.9c2.1-3.5,5.3-5.3,9.4-5.4c8-0.1,16.1-0.1,24.1,0c4.1,0,7.3,1.8,9.4,5.4c4.1,7,8.1,13.9,12.1,21
		c2,3.6,2,7.2,0,10.8c-4,7-8,14-12.1,21c-2.1,3.5-5.3,5.3-9.4,5.4C548,568.4,544,568.4,540,568.4z M540.1,509.4c-3.9,0-7.8,0-11.8,0
		c-2.6,0-4.6,1.1-5.9,3.4c-3.9,6.8-7.9,13.6-11.8,20.5c-1.3,2.2-1.3,4.5,0,6.7c3.9,6.8,7.9,13.6,11.8,20.5c1.3,2.2,3.2,3.4,5.8,3.4
		c7.9,0,15.8,0,23.7,0c2.5,0,4.5-1.1,5.7-3.3c4-6.9,7.9-13.7,11.9-20.6c1.3-2.2,1.3-4.5,0-6.7c-3.9-6.8-7.9-13.6-11.8-20.5
		c-1.3-2.2-3.2-3.4-5.8-3.4C547.9,509.4,544,509.4,540.1,509.4z"/>
	<path class="st0" d="M526.6,536.5c0.1-7.4,6.1-13.3,13.5-13.3c7.4,0.1,13.3,6.1,13.3,13.5c-0.1,7.4-6.1,13.3-13.5,13.3
		C532.5,550,526.6,544,526.6,536.5z M531.2,536.4c-0.1,4.9,3.7,8.9,8.6,9c5,0.1,9-3.7,9.1-8.6c0.1-4.9-3.7-8.9-8.6-9
		C535.3,527.7,531.2,531.5,531.2,536.4z"/>
</g>
</svg>
